<svg width="15" height="15" viewBox="0 0 15 15" fill="none" xmlns="http://www.w3.org/2000/svg">
<path d="M14.7507 13.5474L10.0066 8.80334C10.9708 7.48082 11.3974 5.74875 10.8428 3.90575C10.2626 2.00302 8.64999 0.509855 6.7046 0.117365C2.73704 -0.68468 -0.684454 2.74534 0.117592 6.70438C0.510082 8.65829 2.00325 10.2709 3.90598 10.8426C5.74897 11.3972 7.48105 10.9706 8.80357 10.0064L13.5476 14.7504C13.8803 15.0832 14.4179 15.0832 14.7507 14.7504C15.0834 14.4177 15.0834 13.8801 14.7507 13.5474ZM1.70462 5.54397C1.70462 3.4194 3.41963 1.70439 5.5442 1.70439C7.66876 1.70439 9.38377 3.4194 9.38377 5.54397C9.38377 7.66854 7.66876 9.38355 5.5442 9.38355C3.41963 9.38355 1.70462 7.66854 1.70462 5.54397Z" fill="#B2B2B2"/>
</svg>
